<svg width="159" height="32" viewBox="0 0 159 32" fill="none" xmlns="http://www.w3.org/2000/svg">
<path d="M52.5084 26C51.8604 26 51.2844 25.448 51.2844 24.8V12.68L45.3804 22.592C45.1644 22.904 44.8044 23.072 44.4204 23.072C44.0364 23.072 43.6764 22.904 43.4364 22.592L37.5084 12.68V24.8C37.5084 25.448 36.9804 26 36.3084 26C35.6604 26 35.1084 25.448 35.1084 24.8V8.288C35.1084 7.76 35.4444 7.304 35.9484 7.136C36.4284 6.968 36.9804 7.16 37.2924 7.568L44.4204 19.592L51.5244 7.568C51.8604 7.16 52.3884 6.968 52.8924 7.136C53.3724 7.304 53.7084 7.76 53.7084 8.288V24.8C53.7084 25.448 53.1804 26 52.5084 26ZM70.3997 7.328C69.8477 6.968 69.1037 7.112 68.7437 7.664L63.2717 15.848L57.8237 7.664C57.4637 7.112 56.7197 6.968 56.1677 7.328C55.6157 7.712 55.4717 8.456 55.8317 9.008L62.0717 18.368V24.8C62.0717 25.448 62.6237 26 63.2717 26C63.9437 26 64.4717 25.448 64.4717 24.8V18.368L70.7357 9.008C71.0957 8.456 70.9517 7.712 70.3997 7.328ZM85.7068 25.976C85.1548 25.976 84.6508 25.568 84.5308 24.992C84.2428 23.528 83.7868 22.352 83.1628 21.464C82.7068 20.792 82.1308 20.312 81.4828 20C80.9788 19.736 80.4748 19.64 80.0908 19.616C79.7788 19.616 79.4428 19.64 79.1068 19.64C78.5068 19.64 77.9788 19.16 77.9308 18.536C77.8588 17.936 78.2908 17.36 78.8908 17.264C78.9868 17.24 79.4428 17.144 80.1148 17.192C81.3628 17.12 82.3468 16.856 83.0668 16.448C84.1228 15.848 84.6268 14.912 84.6268 13.496C84.6268 12.536 84.4348 11.744 84.0988 11.12C83.8348 10.664 83.4508 10.304 82.9948 10.016C82.1308 9.536 81.2428 9.512 81.1708 9.512H75.2428V24.776C75.2428 25.424 74.7148 25.976 74.0428 25.976C73.3948 25.976 72.8428 25.424 72.8428 24.776V8.312C72.8428 7.64 73.3948 7.112 74.0428 7.112H81.1708C81.2668 7.112 81.8428 7.112 82.5868 7.304C83.6428 7.568 84.5788 8.072 85.2988 8.792C85.8268 9.32 86.2588 9.968 86.5468 10.712C86.8588 11.528 87.0268 12.464 87.0268 13.496C87.0268 15.752 86.0668 17.504 84.2668 18.536C84.1468 18.608 84.0268 18.656 83.8828 18.728C84.3148 19.088 84.6988 19.496 85.0588 19.976C85.9228 21.152 86.5228 22.688 86.8828 24.536C87.0028 25.184 86.5948 25.832 85.9468 25.952C85.8508 25.952 85.7788 25.976 85.7068 25.976ZM101.616 23.6H91.3444V17.72H100.224C100.896 17.72 101.424 17.192 101.424 16.52C101.424 15.872 100.896 15.32 100.224 15.32H91.3444V9.536H101.376C102.048 9.536 102.576 9.008 102.576 8.336C102.576 7.664 102.048 7.136 101.376 7.136H90.1444C89.4964 7.136 88.9444 7.664 88.9444 8.336V24.8C88.9444 25.472 89.4964 26 90.1444 26H101.616C102.288 26 102.816 25.472 102.816 24.8C102.816 24.128 102.288 23.6 101.616 23.6ZM111.797 26.384C111.173 26.384 110.525 26.336 109.901 26.24C108.749 26.048 107.669 25.712 106.829 25.232C105.773 24.68 105.077 23.936 104.789 23.12C104.501 22.28 105.389 21.224 106.253 21.656C106.469 21.776 106.613 21.992 106.757 22.184C107.621 23.24 108.965 23.696 110.261 23.912C111.365 24.08 112.493 24.056 113.405 23.864C114.533 23.624 115.613 23.048 116.045 21.944C116.261 21.392 116.309 20.768 116.117 20.216C115.565 18.584 113.525 17.984 111.797 17.624C110.645 17.384 109.493 17.096 108.413 16.64C107.261 16.184 106.109 15.488 105.461 14.384C104.669 13.064 104.813 10.976 105.293 9.992C106.757 7.064 109.589 6.728 111.245 6.728C112.493 6.728 113.789 6.944 114.821 7.352C116.141 7.856 117.173 8.72 117.485 9.632C117.629 10.016 117.533 10.448 117.269 10.76C116.981 11.12 116.453 11.288 116.021 11.048C115.901 10.976 115.805 10.856 115.685 10.76C115.205 10.232 114.485 9.728 113.597 9.392C112.853 9.104 112.037 9.08 111.245 9.08C109.373 9.08 107.237 9.8 107.237 11.984C107.237 14 108.989 14.6 112.997 15.584C118.133 16.832 118.805 19.664 118.325 22.064C117.605 25.64 113.381 26.384 111.797 26.384ZM133.573 7.136H120.637C119.965 7.136 119.437 7.664 119.437 8.336C119.437 9.008 119.965 9.536 120.637 9.536H125.917V24.8C125.917 25.472 126.445 26 127.117 26C127.765 26 128.317 25.472 128.317 24.8V9.536H133.573C134.245 9.536 134.773 9.008 134.773 8.336C134.773 7.664 134.245 7.136 133.573 7.136ZM144.274 26.408C142.954 26.408 141.658 26.144 140.434 25.616C139.258 25.112 138.202 24.416 137.29 23.504C136.402 22.592 135.682 21.56 135.178 20.384C134.674 19.184 134.41 17.912 134.41 16.616C134.41 15.296 134.674 14.024 135.202 12.824C135.706 11.672 136.426 10.616 137.338 9.728C138.25 8.816 139.306 8.12 140.482 7.616C141.706 7.112 143.002 6.848 144.346 6.848C146.962 6.848 149.41 7.88 151.234 9.752C152.122 10.64 152.794 11.696 153.274 12.848C153.778 14.048 154.018 15.32 154.018 16.616C154.018 17.936 153.778 19.208 153.274 20.384C152.794 21.56 152.098 22.616 151.21 23.504C149.362 25.376 146.914 26.408 144.274 26.408ZM144.346 9.248C143.338 9.248 142.354 9.44 141.418 9.824C140.506 10.208 139.714 10.736 139.018 11.432C138.322 12.104 137.77 12.896 137.41 13.784C137.002 14.672 136.81 15.632 136.81 16.616C136.81 17.6 137.002 18.536 137.386 19.448C137.77 20.336 138.298 21.128 138.994 21.8C140.41 23.216 142.282 24.008 144.274 24.008C146.266 24.008 148.114 23.216 149.506 21.824C150.178 21.152 150.682 20.36 151.066 19.472C151.426 18.56 151.618 17.6 151.618 16.616C151.618 14.648 150.874 12.8 149.53 11.432C148.162 10.016 146.314 9.248 144.346 9.248Z" fill="white"/>
<g clip-path="url(#clip0_5_6)">
<path d="M10.7574 4.00728C9.96838 3.93306 9.234 4.41842 9.03234 5.18502L8.3092 7.93258C17.4703 8.20064 23.6676 14.31 24.0553 23.4111L26.8356 22.6406C27.6031 22.4277 28.0802 21.6796 27.9889 20.8877C26.9694 12.0605 19.6398 4.84566 10.7574 4.00728ZM7.90246 9.47603L3.02697 28.0058C2.99153 28.1404 2.99221 28.282 3.02895 28.4163C3.0657 28.5505 3.1372 28.6727 3.23624 28.7705C3.33529 28.8683 3.45838 28.9383 3.59309 28.9734C3.7278 29.0084 3.86938 29.0073 4.00353 28.9702L22.5094 23.8383C22.3009 15.2988 16.4996 9.57369 7.90246 9.47799V9.47603ZM9.25012 24.3125C8.94108 24.3125 8.63899 24.2208 8.38204 24.0491C8.12509 23.8774 7.92482 23.6334 7.80656 23.3479C7.68829 23.0624 7.65735 22.7482 7.71764 22.4451C7.77793 22.142 7.92674 21.8636 8.14526 21.6451C8.36378 21.4266 8.64219 21.2778 8.94529 21.2175C9.24838 21.1572 9.56255 21.1881 9.84806 21.3064C10.1336 21.4247 10.3776 21.6249 10.5493 21.8819C10.721 22.1388 10.8126 22.4409 10.8126 22.75C10.8126 23.1644 10.648 23.5618 10.355 23.8548C10.0619 24.1478 9.66452 24.3125 9.25012 24.3125ZM11.5939 16.8906C11.2848 16.8906 10.9827 16.7989 10.7258 16.6273C10.4688 16.4556 10.2686 16.2115 10.1503 15.926C10.032 15.6405 10.0011 15.3264 10.0614 15.0233C10.1217 14.7202 10.2705 14.4418 10.489 14.2232C10.7075 14.0047 10.9859 13.8559 11.289 13.7956C11.5921 13.7353 11.9063 13.7663 12.1918 13.8845C12.4773 14.0028 12.7213 14.2031 12.893 14.46C13.0647 14.717 13.1564 15.0191 13.1564 15.3281C13.1564 15.7425 12.9917 16.1399 12.6987 16.4329C12.4057 16.726 12.0083 16.8906 11.5939 16.8906ZM16.672 21.9687C16.363 21.9687 16.0609 21.8771 15.8039 21.7054C15.547 21.5337 15.3467 21.2897 15.2284 21.0042C15.1102 20.7186 15.0792 20.4045 15.1395 20.1014C15.1998 19.7983 15.3486 19.5199 15.5671 19.3014C15.7857 19.0828 16.0641 18.934 16.3672 18.8737C16.6703 18.8134 16.9844 18.8444 17.2699 18.9626C17.5554 19.0809 17.7995 19.2812 17.9712 19.5381C18.1429 19.7951 18.2345 20.0972 18.2345 20.4062C18.2345 20.8206 18.0699 21.218 17.7768 21.5111C17.4838 21.8041 17.0864 21.9687 16.672 21.9687Z" fill="white"/>
</g>
<defs>
<clipPath id="clip0_5_6">
<rect width="25" height="25" fill="white" transform="translate(3 4)"/>
</clipPath>
</defs>
</svg>
